#Comment line ignore any data following # character 
#Hierarchical Translation and Rotation (.htr) file 
[Header]	
#Header keywords are followed by a single value 
FileType HTR		#Single word string
DataType HTRS		#Translation followed by rotation and scale data
FileVersion 1		#integer
NumSegments 84		#integer
NumFrames 2		#integer
DataFrameRate 30		#integer, data frame rate in this file
EulerRotationOrder ZYX
CalibrationUnits mm
RotationUnits Degrees
GlobalAxisofGravity Y
BoneLengthAxis Y
ScaleFactor 1.00
[SegmentNames&Hierarchy]
#CHILD	PARENT
MASTER GLOBAL
root MASTER
chest root
L_mid_tent01 root
R_mid_tent01 root
spine01 root
Bip01_Neck chest
L_humerus chest
R_humerus chest
weapon_bone chest
Bip01_Head Bip01_Neck
eye_left_bone Bip01_Head
eye_right_bone Bip01_Head
L_forearm L_humerus
L_front_hand L_forearm
L_weapon_bone L_forearm
L_front_hand01_01 L_front_hand
L_front_hand02_01 L_front_hand
L_front_hand03_01 L_front_hand
L_front_hand01_02 L_front_hand01_01
L_front_hand02_02 L_front_hand02_01
L_front_hand03_02 L_front_hand03_01
R_forearm R_humerus
R_front_hand R_forearm
R_weapon_bone R_forearm
R_front_hand01_01 R_front_hand
R_front_hand02_01 R_front_hand
R_front_hand03_01 R_front_hand
R_front_hand01_02 R_front_hand01_01
R_front_hand02_02 R_front_hand02_01
R_front_hand03_02 R_front_hand03_01
null_rope01_connect L_mid_tent01
Rope1_Seg01 null_rope01_connect
Rope1_Seg02 Rope1_Seg01
Rope1_Seg03 Rope1_Seg02
Rope1_Seg04 Rope1_Seg03
Rope1_Seg05 Rope1_Seg04
Rope1_Seg06 Rope1_Seg05
Rope1_Seg07 Rope1_Seg06
Rope1_Seg09 Rope1_Seg07
L_mid_hand01 Rope1_Seg09
L_mid_hand02 Rope1_Seg09
L_mid_hand03 Rope1_Seg09
null_rope02_connect R_mid_tent01
Rope2_Seg01 null_rope02_connect
Rope2_Seg02 Rope2_Seg01
Rope2_Seg03 Rope2_Seg02
Rope2_Seg04 Rope2_Seg03
Rope2_Seg05 Rope2_Seg04
Rope2_Seg06 Rope2_Seg05
Rope2_Seg07 Rope2_Seg06
Rope2_Seg09 Rope2_Seg07
R_mid_hand01 Rope2_Seg09
R_mid_hand02 Rope2_Seg09
R_mid_hand03 Rope2_Seg09
spine02 spine01
spine03 spine02
pelvis spine03
null_rope03_connect pelvis
null_rope04_connect pelvis
Rope3_Seg01 null_rope03_connect
Rope3_Seg02 Rope3_Seg01
Rope3_Seg03 Rope3_Seg02
Rope3_Seg04 Rope3_Seg03
Rope3_Seg05 Rope3_Seg04
Rope3_Seg06 Rope3_Seg05
Rope3_Seg07 Rope3_Seg06
Rope3_Seg08 Rope3_Seg07
Rope3_Seg09 Rope3_Seg08
R_rear_hand01 Rope3_Seg09
R_rear_hand02 Rope3_Seg09
R_rear_hand03 Rope3_Seg09
Rope4_Seg01 null_rope04_connect
Rope4_Seg02 Rope4_Seg01
Rope4_Seg03 Rope4_Seg02
Rope4_Seg04 Rope4_Seg03
Rope4_Seg05 Rope4_Seg04
Rope4_Seg06 Rope4_Seg05
Rope4_Seg07 Rope4_Seg06
Rope4_Seg08 Rope4_Seg07
Rope4_Seg09 Rope4_Seg08
L_rear_hand01 Rope4_Seg09
L_rear_hand02 Rope4_Seg09
L_rear_hand03 Rope4_Seg09
[BasePosition]
#SegmentName Tx, Ty, Tz, Rx, Ry, Rz, BoneLength
MASTER 0.000000 0.000000 0.000000 -90.000000 0.000000 0.000000 10.000000 
root 0.000000 0.000000 0.000000 0.000000 0.000000 0.000000 10.000000 
chest 0.000000 0.000000 0.000000 0.000000 0.000000 0.000000 10.000000 
L_mid_tent01 0.000000 0.000000 0.000000 0.000000 0.000000 0.000000 10.000000 
R_mid_tent01 0.000000 0.000000 0.000000 0.000000 0.000000 0.000000 10.000000 
spine01 0.000000 0.000000 0.000000 0.000000 0.000000 0.000000 10.000000 
Bip01_Neck 0.000000 0.000000 0.000000 0.000000 0.000000 0.000000 10.000000 
L_humerus 0.000000 0.000000 0.000000 0.000000 0.000000 0.000000 10.000000 
R_humerus 0.000000 0.000000 0.000000 0.000000 0.000000 0.000000 10.000000 
weapon_bone 0.000000 0.000000 0.000000 0.000000 0.000000 0.000000 10.000000 
Bip01_Head 0.000000 0.000000 0.000000 0.000000 0.000000 0.000000 10.000000 
eye_left_bone 0.000000 0.000000 0.000000 0.000000 0.000000 0.000000 10.000000 
eye_right_bone 0.000000 0.000000 0.000000 0.000000 0.000000 0.000000 10.000000 
L_forearm 0.000000 0.000000 0.000000 0.000000 0.000000 0.000000 10.000000 
L_front_hand 0.000000 0.000000 0.000000 0.000000 0.000000 0.000000 10.000000 
L_weapon_bone 0.000000 0.000000 0.000000 0.000000 0.000000 0.000000 10.000000 
L_front_hand01_01 0.000000 0.000000 0.000000 0.000000 0.000000 0.000000 10.000000 
L_front_hand02_01 0.000000 0.000000 0.000000 0.000000 0.000000 0.000000 10.000000 
L_front_hand03_01 0.000000 0.000000 0.000000 0.000000 0.000000 0.000000 10.000000 
L_front_hand01_02 0.000000 0.000000 0.000000 0.000000 0.000000 0.000000 10.000000 
L_front_hand02_02 0.000000 0.000000 0.000000 0.000000 0.000000 0.000000 10.000000 
L_front_hand03_02 0.000000 0.000000 0.000000 0.000000 0.000000 0.000000 10.000000 
R_forearm 0.000000 0.000000 0.000000 0.000000 0.000000 0.000000 10.000000 
R_front_hand 0.000000 0.000000 0.000000 0.000000 0.000000 0.000000 10.000000 
R_weapon_bone 0.000000 0.000000 0.000000 0.000000 0.000000 0.000000 10.000000 
R_front_hand01_01 0.000000 0.000000 0.000000 0.000000 0.000000 0.000000 10.000000 
R_front_hand02_01 0.000000 0.000000 0.000000 0.000000 0.000000 0.000000 10.000000 
R_front_hand03_01 0.000000 0.000000 0.000000 0.000000 0.000000 0.000000 10.000000 
R_front_hand01_02 0.000000 0.000000 0.000000 0.000000 0.000000 0.000000 10.000000 
R_front_hand02_02 0.000000 0.000000 0.000000 0.000000 0.000000 0.000000 10.000000 
R_front_hand03_02 0.000000 0.000000 0.000000 0.000000 0.000000 0.000000 10.000000 
null_rope01_connect 0.000000 0.000000 0.000000 0.000000 0.000000 0.000000 10.000000 
Rope1_Seg01 0.000000 0.000000 0.000000 0.000000 0.000000 0.000000 10.000000 
Rope1_Seg02 0.000000 0.000000 0.000000 0.000000 0.000000 0.000000 10.000000 
Rope1_Seg03 0.000000 0.000000 0.000000 0.000000 0.000000 0.000000 10.000000 
Rope1_Seg04 0.000000 0.000000 0.000000 0.000000 0.000000 0.000000 10.000000 
Rope1_Seg05 0.000000 0.000000 0.000000 0.000000 0.000000 0.000000 10.000000 
Rope1_Seg06 0.000000 0.000000 0.000000 0.000000 0.000000 0.000000 10.000000 
Rope1_Seg07 0.000000 0.000000 0.000000 0.000000 0.000000 0.000000 10.000000 
Rope1_Seg09 0.000000 0.000000 0.000000 0.000000 0.000000 0.000000 10.000000 
L_mid_hand01 0.000000 0.000000 0.000000 0.000000 0.000000 0.000000 10.000000 
L_mid_hand02 0.000000 0.000000 0.000000 0.000000 0.000000 0.000000 10.000000 
L_mid_hand03 0.000000 0.000000 0.000000 0.000000 0.000000 0.000000 10.000000 
null_rope02_connect 0.000000 0.000000 0.000000 0.000000 0.000000 0.000000 10.000000 
Rope2_Seg01 0.000000 0.000000 0.000000 0.000000 0.000000 0.000000 10.000000 
Rope2_Seg02 0.000000 0.000000 0.000000 0.000000 0.000000 0.000000 10.000000 
Rope2_Seg03 0.000000 0.000000 0.000000 0.000000 0.000000 0.000000 10.000000 
Rope2_Seg04 0.000000 0.000000 0.000000 0.000000 0.000000 0.000000 10.000000 
Rope2_Seg05 0.000000 0.000000 0.000000 0.000000 0.000000 0.000000 10.000000 
Rope2_Seg06 0.000000 0.000000 0.000000 0.000000 0.000000 0.000000 10.000000 
Rope2_Seg07 0.000000 0.000000 0.000000 0.000000 0.000000 0.000000 10.000000 
Rope2_Seg09 0.000000 0.000000 0.000000 0.000000 0.000000 0.000000 10.000000 
R_mid_hand01 0.000000 0.000000 0.000000 0.000000 0.000000 0.000000 10.000000 
R_mid_hand02 0.000000 0.000000 0.000000 0.000000 0.000000 0.000000 10.000000 
R_mid_hand03 0.000000 0.000000 0.000000 0.000000 0.000000 0.000000 10.000000 
spine02 0.000000 0.000000 0.000000 0.000000 0.000000 0.000000 10.000000 
spine03 0.000000 0.000000 0.000000 0.000000 0.000000 0.000000 10.000000 
pelvis 0.000000 0.000000 0.000000 0.000000 0.000000 0.000000 10.000000 
null_rope03_connect 0.000000 0.000000 0.000000 0.000000 0.000000 0.000000 10.000000 
null_rope04_connect 0.000000 0.000000 0.000000 0.000000 0.000000 0.000000 10.000000 
Rope3_Seg01 0.000000 0.000000 0.000000 0.000000 0.000000 0.000000 10.000000 
Rope3_Seg02 0.000000 0.000000 0.000000 0.000000 0.000000 0.000000 10.000000 
Rope3_Seg03 0.000000 0.000000 0.000000 0.000000 0.000000 0.000000 10.000000 
Rope3_Seg04 0.000000 0.000000 0.000000 0.000000 0.000000 0.000000 10.000000 
Rope3_Seg05 0.000000 0.000000 0.000000 0.000000 0.000000 0.000000 10.000000 
Rope3_Seg06 0.000000 0.000000 0.000000 0.000000 0.000000 0.000000 10.000000 
Rope3_Seg07 0.000000 0.000000 0.000000 0.000000 0.000000 0.000000 10.000000 
Rope3_Seg08 0.000000 0.000000 0.000000 0.000000 0.000000 0.000000 10.000000 
Rope3_Seg09 0.000000 0.000000 0.000000 0.000000 0.000000 0.000000 10.000000 
R_rear_hand01 0.000000 0.000000 0.000000 0.000000 0.000000 0.000000 10.000000 
R_rear_hand02 0.000000 0.000000 0.000000 0.000000 0.000000 0.000000 10.000000 
R_rear_hand03 0.000000 0.000000 0.000000 0.000000 0.000000 0.000000 10.000000 
Rope4_Seg01 0.000000 0.000000 0.000000 0.000000 0.000000 0.000000 10.000000 
Rope4_Seg02 0.000000 0.000000 0.000000 0.000000 0.000000 0.000000 10.000000 
Rope4_Seg03 0.000000 0.000000 0.000000 0.000000 0.000000 0.000000 10.000000 
Rope4_Seg04 0.000000 0.000000 0.000000 0.000000 0.000000 0.000000 10.000000 
Rope4_Seg05 0.000000 0.000000 0.000000 0.000000 0.000000 0.000000 10.000000 
Rope4_Seg06 0.000000 0.000000 0.000000 0.000000 0.000000 0.000000 10.000000 
Rope4_Seg07 0.000000 0.000000 0.000000 0.000000 0.000000 0.000000 10.000000 
Rope4_Seg08 0.000000 0.000000 0.000000 0.000000 0.000000 0.000000 10.000000 
Rope4_Seg09 0.000000 0.000000 0.000000 0.000000 0.000000 0.000000 10.000000 
L_rear_hand01 0.000000 0.000000 0.000000 0.000000 0.000000 0.000000 10.000000 
L_rear_hand02 0.000000 0.000000 0.000000 0.000000 0.000000 0.000000 10.000000 
L_rear_hand03 0.000000 0.000000 0.000000 0.000000 0.000000 0.000000 10.000000 
#Beginning of Data. Separated by tabs
#Fr	Tx	Ty	Tz	Rx	Ry	Rz	SF
[MASTER]
19 -131.075684 3411.568604 1123.390503 0.001660 0.001660 0.001660 3594.160156
20 -128.737686 3508.054932 1007.032654 0.001660 0.001660 0.001660 3652.004639
[root]
19 -8.415222 256.714478 896.626770 -96.566498 -18.241325 -88.217117 932.691162
20 -8.399448 290.769958 974.918213 -96.628242 -23.494980 -87.826530 1017.390381
[chest]
19 -84.512650 -34.090519 0.000000 -1.657566 2.295492 142.822617 91.129311
20 -84.512650 -34.090519 0.000000 -3.280202 -2.529839 143.123657 91.129311
[L_mid_tent01]
19 27.298889 22.179049 -249.918701 -0.210073 18.258179 81.178871 252.381653
20 27.298880 22.179045 -249.918701 -0.243024 18.135767 81.091141 252.381653
[R_mid_tent01]
19 23.228794 24.509907 226.238495 142.176453 -34.098564 66.699791 228.744751
20 23.228794 24.509907 226.238495 138.594223 -35.830189 66.838951 228.744751
[spine01]
19 -0.361383 -0.195265 0.000000 -0.000001 -0.000007 22.052340 0.410763
20 -0.361383 -0.195265 0.000000 -0.000001 -0.000007 22.052340 0.410763
[Bip01_Neck]
19 165.484543 71.581718 0.000119 176.643677 -1.657967 43.431911 180.302734
20 165.484543 71.581718 0.000119 176.643677 -1.657967 43.431911 180.302734
[L_humerus]
19 -13.983130 -135.272980 -120.471481 168.185974 43.762634 -98.198044 181.680161
20 -13.983130 -135.272980 -120.471481 169.710297 35.114872 -95.935844 181.680161
[R_humerus]
19 -13.983309 -135.273102 125.287651 -176.034622 -20.834070 -87.614471 184.909012
20 -13.983309 -135.273102 125.287651 -176.305649 -15.362666 -87.104424 184.909012
[weapon_bone]
19 235.964890 -300.705902 0.000000 0.000000 -89.951546 -128.212341 382.234833
20 235.964890 -300.705902 0.000000 0.000000 -89.951546 -128.212341 382.234833
[Bip01_Head]
19 213.351074 185.943756 8.369888 4.962491 2.797846 -43.898746 283.132141
20 213.357895 185.917343 8.604942 4.962490 2.797846 -43.898750 283.126984
[eye_left_bone]
19 -24.626970 125.451866 -64.772606 0.000000 -90.000000 -99.840431 143.318359
20 -24.626970 125.451866 -64.772606 0.000000 -90.000000 -99.840431 143.318359
[eye_right_bone]
19 -24.626970 125.451866 64.327362 0.000000 -89.965736 80.156380 143.117676
20 -24.626970 125.451866 64.327362 0.000000 -89.965736 80.156380 143.117676
[L_forearm]
19 322.776093 0.000000 -0.000119 0.000400 -0.002313 -109.601646 322.776093
20 322.776093 0.000000 -0.000119 0.000396 -0.002314 -109.444214 322.776093
[L_front_hand]
19 241.149185 -0.042021 -3.300071 -34.864918 -1.837708 -27.425161 241.171753
20 241.149185 -0.042021 -3.300071 -61.889069 -1.837500 -27.424942 241.171753
[L_weapon_bone]
19 156.183838 0.000000 0.000000 0.000014 0.000007 0.000001 156.183838
20 156.183838 0.000000 0.000000 0.000014 0.000007 0.000001 156.183838
[L_front_hand01_01]
19 86.095154 20.947098 -0.655860 -0.343298 -0.494452 72.684830 88.609184
20 86.095154 20.947098 -0.655860 -0.351864 -0.488251 73.756912 88.609184
[L_front_hand02_01]
19 86.935165 -11.437475 24.513514 150.381821 -58.634853 -56.693264 91.046425
20 86.935165 -11.437475 24.513514 151.937775 -59.151119 -58.507736 91.046425
[L_front_hand03_01]
19 86.637497 -14.123976 -20.424902 -150.184570 56.852535 -58.280544 90.126129
20 86.637497 -14.123976 -20.424902 -151.626480 57.374607 -59.999687 90.126129
[L_front_hand01_02]
19 71.020905 -0.000179 0.000030 0.000280 -0.002330 -103.706055 71.020905
20 71.020905 -0.000179 0.000030 0.000272 -0.002331 -103.315620 71.020905
[L_front_hand02_02]
19 71.020927 -0.000119 0.000060 0.000280 -0.002330 -103.706055 71.020927
20 71.020927 -0.000119 0.000060 0.000272 -0.002331 -103.315620 71.020927
[L_front_hand03_02]
19 71.020905 -0.000060 0.000060 0.000280 -0.002330 -103.706055 71.020905
20 71.020905 -0.000060 0.000060 0.000272 -0.002331 -103.315620 71.020905
[R_forearm]
19 322.776428 -0.000060 0.000030 0.201809 0.066061 -108.575287 322.776428
20 322.776428 -0.000060 0.000030 0.201890 0.065814 -108.435127 322.776428
[R_front_hand]
19 238.847015 -0.006795 2.210259 -56.404797 -10.645411 -26.314463 238.857239
20 238.847015 -0.006795 2.210259 -18.125416 -10.645663 -26.315670 238.857239
[R_weapon_bone]
19 155.664093 0.002503 -0.000030 0.003487 0.001180 -90.988930 155.664078
20 155.664093 0.002503 -0.000030 0.003487 0.001180 -90.988930 155.664078
[R_front_hand01_01]
19 87.624611 14.231146 22.918642 -154.633499 -59.950619 61.746044 91.683487
20 87.624611 14.231146 22.918642 -154.267029 -59.846516 61.321247 91.683487
[R_front_hand02_01]
19 89.356956 14.367283 -19.491137 154.602661 58.302849 63.744389 92.579636
20 89.356956 14.367283 -19.491137 154.258240 58.203205 63.346249 92.579636
[R_front_hand03_01]
19 87.286232 -22.307278 -0.143439 0.162155 -0.423168 -75.767921 90.091743
20 87.286232 -22.307278 -0.143439 0.161299 -0.423495 -75.536247 90.091743
[R_front_hand01_02]
19 71.020905 0.000060 0.000119 0.002332 -0.000266 103.035164 71.020905
20 71.020905 0.000060 0.000119 0.002332 -0.000264 102.914268 71.020905
[R_front_hand02_02]
19 71.020844 -0.000030 -0.000119 0.002332 -0.000266 103.035164 71.020836
20 71.020844 -0.000030 -0.000119 0.002332 -0.000264 102.914268 71.020836
[R_front_hand03_02]
19 71.020905 0.000000 0.000030 0.002332 -0.000266 103.035164 71.020905
20 71.020905 0.000000 0.000030 0.002332 -0.000264 102.914268 71.020905
[null_rope01_connect]
19 328.732483 0.000000 -0.000238 -159.304367 -65.904228 -173.160492 328.732483
20 328.732483 0.000000 -0.000238 -154.751816 -66.285942 -172.317215 328.732483
[Rope1_Seg01]
19 0.000009 -0.000491 0.000058 -25.061447 -30.416803 161.137909 0.000495
20 0.000007 -0.000516 0.000062 -30.824846 -32.616604 172.264191 0.000520
[Rope1_Seg02]
19 139.999863 -0.000179 0.000000 4.362102 5.868069 7.952275 139.999863
20 139.999863 -0.000179 0.000000 3.145180 7.011031 0.754503 139.999863
[Rope1_Seg03]
19 139.999924 0.000060 -0.000060 9.948513 12.390269 14.652855 139.999924
20 139.999924 0.000060 -0.000060 4.131044 12.846590 0.686067 139.999924
[Rope1_Seg04]
19 139.999924 -0.000060 -0.000119 14.831983 21.319199 18.458036 139.999924
20 139.999924 -0.000060 -0.000119 2.199311 26.189468 -2.168406 139.999924
[Rope1_Seg05]
19 139.999832 0.000119 -0.000060 17.347246 30.732607 23.937130 139.999832
20 139.999832 0.000119 -0.000060 -4.821319 30.563581 -0.233624 139.999832
[Rope1_Seg06]
19 139.999954 0.000119 -0.000060 8.773918 33.617905 18.271795 139.999954
20 139.999954 0.000119 -0.000060 -21.318373 51.048485 17.622133 139.999954
[Rope1_Seg07]
19 139.999985 0.000060 0.000000 -0.227826 12.365808 4.818750 139.999985
20 139.999985 0.000060 0.000000 -13.522962 18.659376 17.209940 139.999985
[Rope1_Seg09]
19 121.602913 0.000119 -0.000089 -89.793175 -1.359789 0.847147 121.602913
20 121.602913 0.000119 -0.000089 -89.793175 -1.359789 0.847147 121.602913
[L_mid_hand01]
19 103.859421 1.038730 8.195221 119.055542 -59.298035 -26.066490 104.187431
20 103.859421 1.038730 8.195221 121.913704 -62.028740 -29.342178 104.187431
[L_mid_hand02]
19 105.572853 -4.139662 -10.864139 -160.167084 40.723114 -60.466171 106.211075
20 105.572853 -4.139662 -10.864139 -162.798111 41.730755 -64.459167 106.211075
[L_mid_hand03]
19 104.641464 17.579376 -3.913581 -9.090188 16.486177 64.488457 106.179977
20 104.641464 17.579376 -3.913581 -8.147997 16.962013 67.754311 106.179977
[null_rope02_connect]
19 328.732849 0.000179 -0.000119 -78.877769 40.210129 50.338215 328.732849
20 328.732849 0.000179 -0.000119 -72.314217 36.291130 49.967060 328.732849
[Rope2_Seg01]
19 0.000053 0.000094 0.000000 115.252243 -51.807529 30.569851 0.000108
20 0.000054 0.000091 0.000000 104.417183 -40.828304 39.819920 0.000106
[Rope2_Seg02]
19 139.999741 -0.000060 -0.000119 -2.409510 -7.371846 -1.736762 139.999756
20 139.999741 -0.000060 -0.000119 -1.315182 -7.279543 -0.489574 139.999756
[Rope2_Seg03]
19 140.000107 0.000030 0.000000 -12.148791 -22.644608 -4.935610 140.000107
20 140.000107 0.000030 0.000000 -6.485384 -19.493736 -1.788426 140.000107
[Rope2_Seg04]
19 139.999802 0.000000 -0.000060 -55.826164 -45.148003 -36.223251 139.999802
20 139.999802 0.000000 -0.000060 -62.246635 -49.210434 -13.944550 139.999802
[Rope2_Seg05]
19 139.999985 -0.000060 0.000119 -25.567646 35.760761 -51.911934 139.999985
20 139.999985 -0.000060 0.000119 -39.820244 -5.288348 -45.381634 139.999985
[Rope2_Seg06]
19 139.999893 -0.000030 -0.000119 0.730763 12.831684 -13.374893 139.999893
20 139.999893 -0.000030 -0.000119 -7.605554 14.477036 -21.997849 139.999893
[Rope2_Seg07]
19 139.999893 0.000060 -0.000060 0.872131 3.050872 -3.369650 139.999893
20 139.999893 0.000060 -0.000060 -0.620383 4.819324 -5.942485 139.999893
[Rope2_Seg09]
19 121.338966 0.000089 -0.000060 33.793236 -1.359788 -0.847141 121.338966
20 121.338966 0.000089 -0.000060 33.793236 -1.359788 -0.847141 121.338966
[R_mid_hand01]
19 104.680779 11.144459 -10.335981 -34.395393 34.968513 42.666153 105.778534
20 104.680779 11.144459 -10.335981 -32.351307 36.833469 46.151844 105.778534
[R_mid_hand02]
19 104.070427 2.443552 8.231699 68.534225 -47.330887 16.661499 104.424065
20 104.070427 2.443552 8.231699 67.067345 -50.463902 18.609598 104.424065
[R_mid_hand03]
19 106.028137 -11.221827 -5.996406 -171.057114 13.096072 -52.505157 106.788818
20 106.028137 -11.221827 -5.996406 -171.852554 13.596698 -55.941730 106.788818
[spine02]
19 129.756927 0.001550 0.000119 0.539843 -4.023613 -15.509618 129.756927
20 129.756927 0.001550 0.000119 0.535633 -4.024182 -15.459536 129.756927
[spine03]
19 78.613976 0.081635 -4.899011 2.000918 3.776135 18.087353 78.766510
20 78.613976 0.081635 -4.899011 2.000078 3.778348 18.053970 78.766510
[pelvis]
19 169.435242 0.051022 0.000000 -0.070460 -0.177685 17.350714 169.435257
20 169.435242 0.051022 0.000000 -0.070394 -0.177711 17.308186 169.435257
[null_rope03_connect]
19 -1.257226 -2.466202 137.391083 -179.845978 -85.056358 -113.813148 137.418976
20 -1.257226 -2.466202 137.391083 -178.886414 -85.183426 -109.467026 137.418976
[null_rope04_connect]
19 -1.259640 -2.480268 -137.844437 -179.845978 -85.056358 -113.813148 137.872513
20 -1.259640 -2.480268 -137.844437 -178.886414 -85.183426 -109.467026 137.872513
[Rope3_Seg01]
19 0.000047 -0.000257 0.000000 11.933580 -67.576134 -61.228664 0.000262
20 0.000045 -0.000269 0.000000 19.479198 -71.226761 -68.747665 0.000273
[Rope3_Seg02]
19 139.999924 -0.000119 0.000060 0.511836 -0.321934 9.114972 139.999924
20 139.999924 -0.000119 0.000060 0.639131 3.388999 9.278315 139.999924
[Rope3_Seg03]
19 139.999924 -0.000119 0.000119 -1.509276 -0.489129 20.520409 139.999924
20 139.999924 -0.000119 0.000119 0.867335 8.131802 21.715973 139.999924
[Rope3_Seg04]
19 139.999924 0.000119 0.000000 -16.313908 0.665999 40.239830 139.999924
20 139.999924 0.000119 0.000000 -2.959306 13.528762 34.746914 139.999924
[Rope3_Seg05]
19 139.999924 -0.000238 0.000060 -39.029228 -11.975538 27.156065 139.999924
20 139.999924 -0.000238 0.000060 -90.787445 3.716453 39.825806 139.999924
[Rope3_Seg06]
19 139.999893 -0.000119 -0.000060 -31.256735 -30.015110 10.233842 139.999893
20 139.999893 -0.000119 -0.000060 -40.246010 -50.173752 0.628497 139.999893
[Rope3_Seg07]
19 139.999771 0.000060 -0.000119 -6.695079 -17.563759 -2.397095 139.999771
20 139.999771 0.000060 -0.000119 -0.394293 -11.478442 -8.989738 139.999771
[Rope3_Seg08]
19 139.999985 -0.000060 0.000000 -1.356905 -7.515274 -1.882076 139.999985
20 139.999985 -0.000060 0.000000 0.311927 -4.161134 -3.360596 139.999985
[Rope3_Seg09]
19 90.185997 -0.000179 -0.000060 89.793228 -1.359877 -0.847183 90.185997
20 90.185997 -0.000179 -0.000060 89.793228 -1.359877 -0.847183 90.185997
[R_rear_hand01]
19 103.366196 -6.073594 -10.757982 -167.735992 21.565800 -48.800823 104.101845
20 103.366196 -6.073594 -10.757982 -169.183289 22.304329 -52.678268 104.101845
[R_rear_hand02]
19 100.509819 12.039542 -7.992327 -27.197794 28.737703 46.115391 101.543350
20 100.509819 12.039542 -7.992327 -25.326187 30.360580 49.900948 101.543350
[R_rear_hand03]
19 101.539970 5.215704 5.435467 81.295586 -49.108280 10.466788 101.819031
20 101.539970 5.215704 5.435467 80.575401 -52.733376 11.389215 101.819031
[Rope4_Seg01]
19 -0.000015 -0.000047 -0.000153 -58.821602 -44.213821 -159.806503 0.000160
20 -0.000015 -0.000045 -0.000153 -52.955830 -65.053986 -163.052902 0.000160
[Rope4_Seg02]
19 139.999985 0.000060 0.000119 -3.908287 1.787164 10.079906 139.999985
20 139.999985 0.000060 0.000119 -0.666371 3.536062 8.236760 139.999985
[Rope4_Seg03]
19 139.999924 0.000000 -0.000238 -8.430868 1.626789 15.503245 139.999924
20 139.999924 0.000000 -0.000238 -2.322800 5.099714 12.510640 139.999924
[Rope4_Seg04]
19 139.999985 0.000000 0.000119 -15.999881 -0.918928 20.749117 139.999985
20 139.999985 0.000000 0.000119 -9.655497 2.025580 21.726046 139.999985
[Rope4_Seg05]
19 139.999802 -0.000060 -0.000119 -17.410461 -6.009846 18.420609 139.999802
20 139.999802 -0.000060 -0.000119 -9.183263 5.790917 16.237787 139.999802
[Rope4_Seg06]
19 139.999924 0.000000 0.000060 -11.257449 -7.945054 11.561880 139.999924
20 139.999924 0.000000 0.000060 -1.763930 23.371187 13.805438 139.999924
[Rope4_Seg07]
19 139.999802 0.000000 0.000000 -6.141272 -6.722898 6.696581 139.999802
20 139.999802 0.000000 0.000000 -100.512177 17.481386 14.663291 139.999802
[Rope4_Seg08]
19 139.999924 0.000000 0.000119 -4.475857 -4.271089 3.462777 139.999924
20 139.999924 0.000000 0.000119 -41.991131 -9.482553 6.549196 139.999924
[Rope4_Seg09]
19 90.185791 0.000060 0.000060 -135.617828 2.228885 0.850567 90.185791
20 90.185791 0.000060 0.000060 -135.617828 2.228885 0.850567 90.185791
[L_rear_hand01]
19 101.696655 -8.392275 -7.654577 -19.499582 -34.171791 119.209068 102.329041
20 101.696655 -8.392275 -7.654577 -17.798244 -35.006115 116.214821 102.329041
[L_rear_hand02]
19 102.726799 -1.568258 5.773216 77.604713 62.517117 165.103577 102.900848
20 102.726799 -1.568258 5.773216 76.414993 65.052925 163.777985 102.900848
[L_rear_hand03]
19 104.552910 9.721220 -10.420293 -173.384857 -23.818932 -116.619865 105.519653
20 104.552910 9.721220 -10.420293 -174.535919 -24.090160 -113.787491 105.519653
